<?xml version="1.0" encoding="UTF-8"?>
<svg version="1.1" xmlns="http://www.w3.org/2000/svg" width="680" height="854">
<path d="M0 0 C98.34 0 196.68 0 298 0 C298.33 0.99 298.66 1.98 299 3 C385.13 3 471.26 3 560 3 C560 3.66 560 4.32 560 5 C563.63 5 567.26 5 571 5 C571 5.66 571 6.32 571 7 C573.31 7 575.62 7 578 7 C578 7.99 578 8.98 578 10 C578.66 10 579.32 10 580 10 C580 10.66 580 11.32 580 12 C581.65 12 583.3 12 585 12 C585 12.66 585 13.32 585 14 C585.66 14 586.32 14 587 14 C587 14.66 587 15.32 587 16 C587.66 16 588.32 16 589 16 C589 16.99 589 17.98 589 19 C589.99 19 590.98 19 592 19 C592 20.32 592 21.64 592 23 C592.66 23 593.32 23 594 23 C594 25.31 594 27.62 594 30 C594.66 30 595.32 30 596 30 C596 32.97 596 35.94 596 39 C596.66 39 597.32 39 598 39 C598 75.3 598 111.6 598 149 C597.34 149 596.68 149 596 149 C596 152.63 596 156.26 596 160 C595.34 160 594.68 160 594 160 C594 161.65 594 163.3 594 165 C593.34 165 592.68 165 592 165 C592 166.32 592 167.64 592 169 C591.01 169 590.02 169 589 169 C589 170.65 589 172.3 589 174 C588.34 174 587.68 174 587 174 C587 174.66 587 175.32 587 176 C586.34 176 585.68 176 585 176 C585 176.66 585 177.32 585 178 C584.34 178 583.68 178 583 178 C583 178.66 583 179.32 583 180 C581.35 180 579.7 180 578 180 C578 180.99 578 181.98 578 183 C576.68 183 575.36 183 574 183 C574 183.66 574 184.32 574 185 C571.69 185 569.38 185 567 185 C567 185.66 567 186.32 567 187 C563.04 187 559.08 187 555 187 C555 187.66 555 188.32 555 189 C533.55 189 512.1 189 490 189 C489.67 189.99 489.34 190.98 489 192 C334.89 192 180.78 192 22 192 C22 191.01 22 190.02 22 189 C0.88 189 -20.24 189 -42 189 C-42 188.34 -42 187.68 -42 187 C-44.97 187 -47.94 187 -51 187 C-51 186.34 -51 185.68 -51 185 C-51.886875 185.04125 -52.77375 185.0825 -53.6875 185.125 C-56.97277013 185.00102754 -59.05449295 184.38612096 -62 183 C-62 182.01 -62 181.02 -62 180 C-62.66 180 -63.32 180 -64 180 C-64 179.34 -64 178.68 -64 178 C-65.65 178 -67.3 178 -69 178 C-69 176.68 -69 175.36 -69 174 C-69.66 174 -70.32 174 -71 174 C-71 172.35 -71 170.7 -71 169 C-71.66 169 -72.32 169 -73 169 C-73 167.68 -73 166.36 -73 165 C-73.99 164.67 -74.98 164.34 -76 164 C-76 162.02 -76 160.04 -76 158 C-76.66 158 -77.32 158 -78 158 C-78 154.04 -78 150.08 -78 146 C-78.66 146 -79.32 146 -80 146 C-80 112.34 -80 78.68 -80 44 C-79.34 44 -78.68 44 -78 44 C-78 40.7 -78 37.4 -78 34 C-77.34 34 -76.68 34 -76 34 C-76 32.02 -76 30.04 -76 28 C-75.01 28 -74.02 28 -73 28 C-73 26.35 -73 24.7 -73 23 C-72.34 23 -71.68 23 -71 23 C-71 21.68 -71 20.36 -71 19 C-70.34 19 -69.68 19 -69 19 C-69 18.01 -69 17.02 -69 16 C-68.34 16 -67.68 16 -67 16 C-67 15.34 -67 14.68 -67 14 C-65.35 14 -63.7 14 -62 14 C-62 13.34 -62 12.68 -62 12 C-61.34 12 -60.68 12 -60 12 C-60 11.34 -60 10.68 -60 10 C-58.35 10 -56.7 10 -55 10 C-55 9.01 -55 8.02 -55 7 C-52.69 7 -50.38 7 -48 7 C-48 6.34 -48 5.68 -48 5 C-43.71 5 -39.42 5 -35 5 C-35 4.34 -35 3.68 -35 3 C-23.78 3 -12.56 3 -1 3 C-0.67 2.01 -0.34 1.02 0 0 Z " fill="#1692CD" transform="translate(82,212)"/>
<path d="M0 0 C190.41 0 380.82 0 577 0 C577 0.66 577 1.32 577 2 C577.73605469 1.98839844 578.47210937 1.97679687 579.23046875 1.96484375 C580.69419922 1.95130859 580.69419922 1.95130859 582.1875 1.9375 C583.15042969 1.92589844 584.11335937 1.91429687 585.10546875 1.90234375 C587.85576513 1.99513378 590.32479591 2.37888315 593 3 C593 3.66 593 4.32 593 5 C595.97 5 598.94 5 602 5 C602 5.66 602 6.32 602 7 C603.32 7 604.64 7 606 7 C606 7.66 606 8.32 606 9 C606.99 9 607.98 9 609 9 C609 9.99 609 10.98 609 12 C609.66 12 610.32 12 611 12 C611 12.66 611 13.32 611 14 C611.66 14 612.32 14 613 14 C613 14.66 613 15.32 613 16 C613.66 16 614.32 16 615 16 C615 16.66 615 17.32 615 18 C615.99 18 616.98 18 618 18 C618 19.65 618 21.3 618 23 C618.66 23 619.32 23 620 23 C620 24.32 620 25.64 620 27 C620.66 27 621.32 27 622 27 C622 30.96 622 34.92 622 39 C622.66 39 623.32 39 624 39 C624 74.31 624 109.62 624 146 C623.34 146 622.68 146 622 146 C622.02320313 146.71285156 622.04640625 147.42570313 622.0703125 148.16015625 C622.17815674 153.88360394 621.92057311 158.59838814 620 164 C619.34 164 618.68 164 618 164 C618 165.65 618 167.3 618 169 C617.01 169 616.02 169 615 169 C615 169.66 615 170.32 615 171 C614.34 171 613.68 171 613 171 C613 172.65 613 174.3 613 176 C611.68 176 610.36 176 609 176 C609 176.66 609 177.32 609 178 C608.01 178 607.02 178 606 178 C606 178.66 606 179.32 606 180 C604.68 180 603.36 180 602 180 C602 180.66 602 181.32 602 182 C600.35 182 598.7 182 597 182 C597 182.99 597 183.98 597 185 C594.03 185 591.06 185 588 185 C588 185.66 588 186.32 588 187 C581.4 187 574.8 187 568 187 C568 187.66 568 188.32 568 189 C378.25 189 188.5 189 -7 189 C-7 188.34 -7 187.68 -7 187 C-10.3 187 -13.6 187 -17 187 C-17 187.66 -17 188.32 -17 189 C-17.99 189 -18.98 189 -20 189 C-20 187.68 -20 186.36 -20 185 C-22.97 185 -25.94 185 -29 185 C-29 184.01 -29 183.02 -29 182 C-30.65 182 -32.3 182 -34 182 C-34 181.34 -34 180.68 -34 180 C-34.66 180 -35.32 180 -36 180 C-36 179.34 -36 178.68 -36 178 C-37.175625 177.814375 -37.175625 177.814375 -38.375 177.625 C-41 177 -41 177 -43 175 C-43 173.68 -43 172.36 -43 171 C-43.66 171 -44.32 171 -45 171 C-45 170.34 -45 169.68 -45 169 C-45.66 169 -46.32 169 -47 169 C-47 167.35 -47 165.7 -47 164 C-47.99 164 -48.98 164 -50 164 C-52.1583195 157.92972642 -52.20852314 152.40629424 -52 146 C-52.66 146 -53.32 146 -54 146 C-54 112.01 -54 78.02 -54 43 C-53.34 43 -52.68 43 -52 43 C-52 39.37 -52 35.74 -52 32 C-51.34 32 -50.68 32 -50 32 C-50 29.69 -50 27.38 -50 25 C-49.01 25 -48.02 25 -47 25 C-47 23.68 -47 22.36 -47 21 C-46.34 21 -45.68 21 -45 21 C-45 20.01 -45 19.02 -45 18 C-44.34 18 -43.68 18 -43 18 C-43 17.34 -43 16.68 -43 16 C-42.34 16 -41.68 16 -41 16 C-41 15.34 -41 14.68 -41 14 C-40.01 14 -39.02 14 -38 14 C-38 13.34 -38 12.68 -38 12 C-37.34 12 -36.68 12 -36 12 C-36 11.01 -36 10.02 -36 9 C-34.68 9 -33.36 9 -32 9 C-32 8.34 -32 7.68 -32 7 C-29.69 7 -27.38 7 -25 7 C-25 6.34 -25 5.68 -25 5 C-22.03 5 -19.06 5 -16 5 C-16 4.34 -16 3.68 -16 3 C-12.32612505 2.14701624 -8.9552607 1.89210529 -5.1875 1.9375 C-4.21167969 1.94652344 -3.23585937 1.95554687 -2.23046875 1.96484375 C-1.12638672 1.98224609 -1.12638672 1.98224609 0 2 C0 1.34 0 0.68 0 0 Z " fill="#1692CD" transform="translate(56,441)"/>
<path d="M0 0 C203.61 0 407.22 0 617 0 C617 0.66 617 1.32 617 2 C618.65 2 620.3 2 622 2 C622 2.66 622 3.32 622 4 C623.32 4 624.64 4 626 4 C626 4.99 626 5.98 626 7 C627.65 7 629.3 7 631 7 C631 7.66 631 8.32 631 9 C631.66 9 632.32 9 633 9 C633 9.66 633 10.32 633 11 C633.66 11 634.32 11 635 11 C635 12.65 635 14.3 635 16 C635.99 16 636.98 16 638 16 C638 16.66 638 17.32 638 18 C638.66 18 639.32 18 640 18 C640 20.31 640 22.62 640 25 C640.66 25 641.32 25 642 25 C642 27.97 642 30.94 642 34 C642.66 34 643.32 34 644 34 C644 69.97 644 105.94 644 143 C643.34 143 642.68 143 642 143 C642 146.96 642 150.92 642 155 C641.34 155 640.68 155 640 155 C640.061875 156.3303125 640.061875 156.3303125 640.125 157.6875 C640.00102754 160.97277013 639.38612096 163.05449295 638 166 C637.01 166 636.02 166 635 166 C635 166.66 635 167.32 635 168 C634.34 168 633.68 168 633 168 C633 168.99 633 169.98 633 171 C632.34 171 631.68 171 631 171 C631 171.66 631 172.32 631 173 C630.34 173 629.68 173 629 173 C629 173.66 629 174.32 629 175 C628.01 175 627.02 175 626 175 C626 175.66 626 176.32 626 177 C624.68 177 623.36 177 622 177 C622 177.99 622 178.98 622 180 C619.69 180 617.38 180 615 180 C615 180.66 615 181.32 615 182 C611.37 182 607.74 182 604 182 C604 182.66 604 183.32 604 184 C592.78 184 581.56 184 570 184 C570 184.66 570 185.32 570 186 C466.71 186 363.42 186 257 186 C257 186.99 257 187.98 257 189 C256.01 189 255.02 189 254 189 C254 188.01 254 187.02 254 186 C252.68 186 251.36 186 250 186 C250 186.99 250 187.98 250 189 C249.01 189 248.02 189 247 189 C247 188.01 247 187.02 247 186 C245.68 186 244.36 186 243 186 C243 186.99 243 187.98 243 189 C242.01 189 241.02 189 240 189 C240 188.01 240 187.02 240 186 C238.68 186 237.36 186 236 186 C236 186.99 236 187.98 236 189 C235.01 189 234.02 189 233 189 C233 188.01 233 187.02 233 186 C232.01 186 231.02 186 230 186 C229.67 186.99 229.34 187.98 229 189 C228.01 188.67 227.02 188.34 226 188 C226 187.34 226 186.68 226 186 C225.01 186 224.02 186 223 186 C223 186.99 223 187.98 223 189 C222.01 189 221.02 189 220 189 C220 188.01 220 187.02 220 186 C218.68 186 217.36 186 216 186 C216 186.99 216 187.98 216 189 C215.01 189 214.02 189 213 189 C213 188.01 213 187.02 213 186 C211.68 186 210.36 186 209 186 C209 186.99 209 187.98 209 189 C208.01 189 207.02 189 206 189 C206 188.01 206 187.02 206 186 C204.68 186 203.36 186 202 186 C202 186.99 202 187.98 202 189 C201.01 189 200.02 189 199 189 C199 188.01 199 187.02 199 186 C198.01 186 197.02 186 196 186 C195.67 186.99 195.34 187.98 195 189 C194.01 188.67 193.02 188.34 192 188 C192 187.34 192 186.68 192 186 C191.01 186 190.02 186 189 186 C189 186.99 189 187.98 189 189 C188.01 189 187.02 189 186 189 C186 188.01 186 187.02 186 186 C184.68 186 183.36 186 182 186 C182 186.99 182 187.98 182 189 C181.01 189 180.02 189 179 189 C179 188.01 179 187.02 179 186 C177.68 186 176.36 186 175 186 C175 186.99 175 187.98 175 189 C174.01 189 173.02 189 172 189 C172 188.01 172 187.02 172 186 C170.68 186 169.36 186 168 186 C168 186.99 168 187.98 168 189 C167.01 189 166.02 189 165 189 C165 188.01 165 187.02 165 186 C164.01 186 163.02 186 162 186 C161.67 186.99 161.34 187.98 161 189 C160.01 188.67 159.02 188.34 158 188 C158 187.34 158 186.68 158 186 C157.01 186 156.02 186 155 186 C155 186.99 155 187.98 155 189 C154.01 189 153.02 189 152 189 C152 188.01 152 187.02 152 186 C150.68 186 149.36 186 148 186 C148 186.99 148 187.98 148 189 C147.01 189 146.02 189 145 189 C145 188.01 145 187.02 145 186 C143.68 186 142.36 186 141 186 C141 186.99 141 187.98 141 189 C140.01 189 139.02 189 138 189 C138 188.01 138 187.02 138 186 C136.68 186 135.36 186 134 186 C134 186.99 134 187.98 134 189 C133.01 189 132.02 189 131 189 C131 188.01 131 187.02 131 186 C130.01 186 129.02 186 128 186 C127.67 186.99 127.34 187.98 127 189 C126.01 188.67 125.02 188.34 124 188 C124 187.34 124 186.68 124 186 C123.01 186 122.02 186 121 186 C121 186.99 121 187.98 121 189 C120.01 189 119.02 189 118 189 C118 188.01 118 187.02 118 186 C116.68 186 115.36 186 114 186 C114 186.99 114 187.98 114 189 C113.01 189 112.02 189 111 189 C111 188.01 111 187.02 111 186 C109.68 186 108.36 186 107 186 C107 186.99 107 187.98 107 189 C106.01 189 105.02 189 104 189 C104 188.01 104 187.02 104 186 C102.68 186 101.36 186 100 186 C100 186.99 100 187.98 100 189 C99.01 189 98.02 189 97 189 C97 188.01 97 187.02 97 186 C96.01 186 95.02 186 94 186 C93.67 186.99 93.34 187.98 93 189 C92.01 188.67 91.02 188.34 90 188 C90 187.34 90 186.68 90 186 C89.01 186 88.02 186 87 186 C87 186.99 87 187.98 87 189 C86.01 189 85.02 189 84 189 C84 188.01 84 187.02 84 186 C82.68 186 81.36 186 80 186 C80 186.99 80 187.98 80 189 C79.01 189 78.02 189 77 189 C77 188.01 77 187.02 77 186 C60.5 186 44 186 27 186 C27 185.34 27 184.68 27 184 C18.75 184 10.5 184 2 184 C2 183.34 2 182.68 2 182 C-0.97 182 -3.94 182 -7 182 C-7 181.34 -7 180.68 -7 180 C-8.65 179.67 -10.3 179.34 -12 179 C-12 178.34 -12 177.68 -12 177 C-13.32 177 -14.64 177 -16 177 C-16 176.34 -16 175.68 -16 175 C-16.66 175 -17.32 175 -18 175 C-18 174.34 -18 173.68 -18 173 C-18.99 173 -19.98 173 -21 173 C-21 172.34 -21 171.68 -21 171 C-21.66 171 -22.32 171 -23 171 C-23 170.01 -23 169.02 -23 168 C-23.66 168 -24.32 168 -25 168 C-25 167.34 -25 166.68 -25 166 C-25.66 166 -26.32 166 -27 166 C-27 164.68 -27 163.36 -27 162 C-27.99 161.67 -28.98 161.34 -30 161 C-30 159.02 -30 157.04 -30 155 C-30.66 155 -31.32 155 -32 155 C-32 150.38 -32 145.76 -32 141 C-32.66 141 -33.32 141 -34 141 C-34 107.01 -34 73.02 -34 38 C-33.34 38 -32.68 38 -32 38 C-32 35.03 -32 32.06 -32 29 C-31.34 29 -30.68 29 -30 29 C-30 27.02 -30 25.04 -30 23 C-29.01 22.67 -28.02 22.34 -27 22 C-27 20.68 -27 19.36 -27 18 C-26.34 18 -25.68 18 -25 18 C-25 16.35 -25 14.7 -25 13 C-24.34 13 -23.68 13 -23 13 C-23 12.34 -23 11.68 -23 11 C-22.34 11 -21.68 11 -21 11 C-21 10.34 -21 9.68 -21 9 C-19.35 9 -17.7 9 -16 9 C-16 8.34 -16 7.68 -16 7 C-14.68 7 -13.36 7 -12 7 C-12 6.01 -12 5.02 -12 4 C-10.35 4 -8.7 4 -7 4 C-7 3.34 -7 2.68 -7 2 C-4.69 2 -2.38 2 0 2 C0 1.34 0 0.68 0 0 Z " fill="#1692CD" transform="translate(36,2)"/>
<path d="M0 0 C152.13 0 304.26 0 461 0 C461 0.66 461 1.32 461 2 C495.98 2 530.96 2 567 2 C567 2.66 567 3.32 567 4 C569.97 4 572.94 4 576 4 C576 4.99 576 5.98 576 7 C578.31 7 580.62 7 583 7 C583 7.66 583 8.32 583 9 C584.65 9 586.3 9 588 9 C588 9.66 588 10.32 588 11 C588.66 11 589.32 11 590 11 C590 11.66 590 12.32 590 13 C590.66 13 591.32 13 592 13 C592 13.99 592 14.98 592 16 C592.66 16 593.32 16 594 16 C594 16.66 594 17.32 594 18 C594.99 18 595.98 18 597 18 C597 19.32 597 20.64 597 22 C597.66 22 598.32 22 599 22 C599 24.31 599 26.62 599 29 C599.66 29 600.32 29 601 29 C601 31.97 601 34.94 601 38 C601.66 38 602.32 38 603 38 C603 74.3 603 110.6 603 148 C602.34 148 601.68 148 601 148 C601 150.97 601 153.94 601 157 C600.34 157 599.68 157 599 157 C599 159.31 599 161.62 599 164 C598.34 164 597.68 164 597 164 C597 165.32 597 166.64 597 168 C596.01 168 595.02 168 594 168 C594 169.65 594 171.3 594 173 C593.34 173 592.68 173 592 173 C592 173.66 592 174.32 592 175 C591.34 175 590.68 175 590 175 C590 175.66 590 176.32 590 177 C589.34 177 588.68 177 588 177 C588 177.99 588 178.98 588 180 C586.35 180 584.7 180 583 180 C583 180.66 583 181.32 583 182 C581.68 182 580.36 182 579 182 C579 182.66 579 183.32 579 184 C576.69 184 574.38 184 572 184 C572 184.66 572 185.32 572 186 C368.06 186 164.12 186 -46 186 C-46 185.34 -46 184.68 -46 184 C-46.886875 184.04125 -47.77375 184.0825 -48.6875 184.125 C-51.97277013 184.00102754 -54.05449295 183.38612096 -57 182 C-57 181.34 -57 180.68 -57 180 C-57.66 180 -58.32 180 -59 180 C-59 179.01 -59 178.02 -59 177 C-59.99 177 -60.98 177 -62 177 C-62 176.34 -62 175.68 -62 175 C-62.66 175 -63.32 175 -64 175 C-64 174.34 -64 173.68 -64 173 C-64.66 173 -65.32 173 -66 173 C-66 171.35 -66 169.7 -66 168 C-66.66 168 -67.32 168 -68 168 C-68 166.68 -68 165.36 -68 164 C-68.99 164 -69.98 164 -71 164 C-71 161.69 -71 159.38 -71 157 C-71.66 157 -72.32 157 -73 157 C-73 153.37 -73 149.74 -73 146 C-73.66 146 -74.32 146 -75 146 C-75 112.01 -75 78.02 -75 43 C-74.34 43 -73.68 43 -73 43 C-73 40.03 -73 37.06 -73 34 C-72.34 34 -71.68 34 -71 34 C-71 31.69 -71 29.38 -71 27 C-70.01 27 -69.02 27 -68 27 C-68 25.35 -68 23.7 -68 22 C-67.34 22 -66.68 22 -66 22 C-66 20.68 -66 19.36 -66 18 C-65.34 18 -64.68 18 -64 18 C-64 17.34 -64 16.68 -64 16 C-63.34 16 -62.68 16 -62 16 C-61.67 15.01 -61.34 14.02 -61 13 C-59.68 13 -58.36 13 -57 13 C-57 12.34 -57 11.68 -57 11 C-56.34 11 -55.68 11 -55 11 C-55 10.34 -55 9.68 -55 9 C-53.35 9 -51.7 9 -50 9 C-50 8.34 -50 7.68 -50 7 C-47.69 7 -45.38 7 -43 7 C-43 6.01 -43 5.02 -43 4 C-39.37 4 -35.74 4 -32 4 C-32 3.34 -32 2.68 -32 2 C-21.44 2 -10.88 2 0 2 C0 1.34 0 0.68 0 0 Z " fill="#1792CD" transform="translate(77,668)"/>
<path d="M0 0 C54.45 0 108.9 0 165 0 C165 14.19 165 28.38 165 43 C110.55 43 56.1 43 0 43 C0 28.81 0 14.62 0 0 Z " fill="#FCFDFE" transform="translate(424,514)"/>
<path d="M0 0 C53.79 0 107.58 0 163 0 C163 13.53 163 27.06 163 41 C109.21 41 55.42 41 0 41 C0 27.47 0 13.94 0 0 Z " fill="#FCFDFE" transform="translate(426,743)"/>
<path d="M0 0 C53.13 0 106.26 0 161 0 C161 13.53 161 27.06 161 41 C107.87 41 54.74 41 0 41 C0 27.47 0 13.94 0 0 Z " fill="#FCFDFE" transform="translate(426,72)"/>
<path d="M0 0 C53.13 0 106.26 0 161 0 C161 13.2 161 26.4 161 40 C107.87 40 54.74 40 0 40 C0 26.8 0 13.6 0 0 Z " fill="#FEFEFE" transform="translate(426,288)"/>
<path d="M0 0 C0.79497894 0.00444122 1.58995789 0.00888245 2.4090271 0.01345825 C3.76020126 0.01368484 3.76020126 0.01368484 5.13867188 0.01391602 C6.11266937 0.02423859 7.08666687 0.03456116 8.09017944 0.04519653 C9.08617157 0.04802643 10.0821637 0.05085632 11.1083374 0.05377197 C14.29771813 0.06499063 17.48682072 0.09009822 20.67611694 0.11550903 C22.83496706 0.12553666 24.99382157 0.13466288 27.15267944 0.14285278 C32.45235266 0.16323614 37.75142251 0.20238174 43.05111694 0.24050903 C43.05111694 14.43050903 43.05111694 28.62050903 43.05111694 43.24050903 C27.54111694 43.24050903 12.03111694 43.24050903 -3.94888306 43.24050903 C-3.99013306 36.51675903 -4.03138306 29.79300903 -4.07388306 22.86550903 C-4.10119507 19.68208862 -4.10119507 19.68208862 -4.12905884 16.43435669 C-4.13489842 14.75776421 -4.13999524 13.08116892 -4.14419556 11.40457153 C-4.15442749 10.52953979 -4.16465942 9.65450806 -4.17520142 8.75296021 C-4.1758323 6.58083281 -4.07226596 4.40912944 -3.94888306 2.24050903 C-1.94888306 0.24050903 -1.94888306 0.24050903 0 0 Z " fill="#FDFEFE" transform="translate(101.94888305664063,513.7594909667969)"/>
<path d="M0 0 C15.18 0 30.36 0 46 0 C46.020625 6.72375 46.04125 13.4475 46.0625 20.375 C46.071604 22.49728027 46.08070801 24.61956055 46.09008789 26.80615234 C46.09300769 28.48274675 46.0955561 30.15934187 46.09765625 31.8359375 C46.10277222 32.71096924 46.10788818 33.58600098 46.11315918 34.48754883 C46.1140718 40.7718564 46.1140718 40.7718564 45 43 C30.15 43 15.3 43 0 43 C0 28.81 0 14.62 0 0 Z " fill="#FEFEFE" transform="translate(172,514)"/>
<path d="M0 0 C15.18 0 30.36 0 46 0 C46.020625 6.744375 46.04125 13.48875 46.0625 20.4375 C46.071604 22.56888428 46.08070801 24.70026855 46.09008789 26.89624023 C46.093007 28.57535743 46.09555557 30.25447533 46.09765625 31.93359375 C46.10277222 32.81374146 46.10788818 33.69388916 46.11315918 34.60070801 C46.11346896 36.73413879 46.06244067 38.86748314 46 41 C45 42 45 42 43.17137146 42.12025452 C42.37417191 42.11803391 41.57697235 42.11581329 40.75561523 42.11352539 C39.85475693 42.11344986 38.95389862 42.11337433 38.02574158 42.11329651 C37.04658279 42.10813522 36.06742401 42.10297394 35.05859375 42.09765625 C34.06118668 42.0962413 33.0637796 42.09482635 32.03614807 42.09336853 C28.83656876 42.08775114 25.63705831 42.07519571 22.4375 42.0625 C20.27408955 42.05748724 18.11067801 42.05292395 15.94726562 42.04882812 C10.63146226 42.03862505 5.31580861 42.01905308 0 42 C0 28.14 0 14.28 0 0 Z " fill="#F3F9FC" transform="translate(172,72)"/>
<path d="M0 0 C15.51 0 31.02 0 47 0 C47 13.53 47 27.06 47 41 C31.49 41 15.98 41 0 41 C0 27.47 0 13.94 0 0 Z " fill="#F4F9FC" transform="translate(98,743)"/>
<path d="M0 0 C15.18 0 30.36 0 46 0 C46 13.53 46 27.06 46 41 C30.82 41 15.64 41 0 41 C0 27.47 0 13.94 0 0 Z " fill="#FEFEFE" transform="translate(172,743)"/>
<path d="M0 0 C14.52 0 29.04 0 44 0 C44 13.2 44 26.4 44 40 C29.48 40 14.96 40 0 40 C0 26.8 0 13.6 0 0 Z " fill="#FCFDFE" transform="translate(173,288)"/>
<path d="M0 0 C14.19 0 28.38 0 43 0 C43 13.2 43 26.4 43 40 C28.81 40 14.62 40 0 40 C0 26.8 0 13.6 0 0 Z " fill="#FEFEFE" transform="translate(100,288)"/>
<path d="M0 0 C14.19 0 28.38 0 43 0 C43 13.2 43 26.4 43 40 C28.81 40 14.62 40 0 40 C0 26.8 0 13.6 0 0 Z " fill="#FEFEFE" transform="translate(100,73)"/>
<path d="M0 0 C54.45 0 108.9 0 165 0 C165.91451078 2.74353235 166.12634375 4.35619521 166.12939453 7.18017578 C166.13254669 8.01759308 166.13569885 8.85501038 166.13894653 9.71780396 C166.13591019 11.06792068 166.13591019 11.06792068 166.1328125 12.4453125 C166.13376923 13.37092987 166.13472595 14.29654724 166.13571167 15.25021362 C166.13639197 17.20538399 166.13454811 19.16055663 166.13037109 21.11572266 C166.12500862 24.12016828 166.13032737 27.12446522 166.13671875 30.12890625 C166.13605818 32.026042 166.13477746 33.92317765 166.1328125 35.8203125 C166.13483673 36.72443878 166.13686096 37.62856506 166.13894653 38.56008911 C166.1149579 44.8850421 166.1149579 44.8850421 165 46 C162.87373202 46.09690407 160.74418181 46.12186822 158.6157074 46.12025452 C157.94106683 46.12110894 157.26642627 46.12196337 156.57134205 46.12284368 C154.29419838 46.12450039 152.0171272 46.11897404 149.73999023 46.11352539 C148.11424766 46.11324353 146.48850495 46.11340122 144.86276245 46.1139679 C140.43526587 46.11425593 136.00779613 46.10835827 131.58030581 46.10139394 C126.95849158 46.09516136 122.3366768 46.09455668 117.71485901 46.09336853 C108.95651763 46.09025493 100.19818867 46.08204115 91.43985277 46.07201904 C81.47145987 46.0608588 71.50306639 46.05534768 61.5346688 46.05032361 C41.02310406 46.03985856 20.51155634 46.02151273 0 46 C0 30.82 0 15.64 0 0 Z M2 3 C2 16.2 2 29.4 2 43 C55.13 43 108.26 43 163 43 C163 29.8 163 16.6 163 3 C109.87 3 56.74 3 2 3 Z " fill="#69B8DE" transform="translate(424,285)"/>
<path d="M0 0 C54.45 0 108.9 0 165 0 C165 14.19 165 28.38 165 43 C110.55 43 56.1 43 0 43 C0 28.81 0 14.62 0 0 Z M2 1 C2 14.2 2 27.4 2 41 C55.13 41 108.26 41 163 41 C163 27.8 163 14.6 163 1 C109.87 1 56.74 1 2 1 Z " fill="#9ACFEA" transform="translate(424,514)"/>
<path d="M0 0 C0.66 0 1.32 0 2 0 C2 13.2 2 26.4 2 40 C55.13 40 108.26 40 163 40 C163 26.8 163 13.6 163 0 C163.66 0 164.32 0 165 0 C165 13.86 165 27.72 165 42 C110.55 42 56.1 42 0 42 C0 28.14 0 14.28 0 0 Z " fill="#72BDE1" transform="translate(424,73)"/>
<path d="M0 0 C15.84 0 31.68 0 48 0 C48 15.18 48 30.36 48 46 C32.16 46 16.32 46 0 46 C0 30.82 0 15.64 0 0 Z M3 3 C3 16.2 3 29.4 3 43 C17.19 43 31.38 43 46 43 C46 29.8 46 16.6 46 3 C31.81 3 17.62 3 3 3 Z " fill="#66B7DE" transform="translate(97,285)"/>
<path d="M0 0 C0.66 0 1.32 0 2 0 C2 13.53 2 27.06 2 41 C55.79 41 109.58 41 165 41 C165 41.66 165 42.32 165 43 C110.55 43 56.1 43 0 43 C0 28.81 0 14.62 0 0 Z " fill="#3CA4D5" transform="translate(424,743)"/>
<path d="M0 0 C15.84 0 31.68 0 48 0 C48 14.19 48 28.38 48 43 C45.68159016 44.15920492 44.34560869 44.12673288 41.765625 44.12939453 C40.89131836 44.13254669 40.01701172 44.13569885 39.11621094 44.13894653 C38.17036133 44.1369223 37.22451172 44.13489807 36.25 44.1328125 C34.7964209 44.13424759 34.7964209 44.13424759 33.31347656 44.13571167 C31.26236913 44.1363929 29.21125955 44.13454261 27.16015625 44.13037109 C24.01297177 44.12502205 20.86593002 44.13031804 17.71875 44.13671875 C15.72916635 44.13605796 13.73958279 44.13477677 11.75 44.1328125 C10.80415039 44.13483673 9.85830078 44.13686096 8.88378906 44.13894653 C8.00948242 44.13579437 7.13517578 44.13264221 6.234375 44.12939453 C5.07760254 44.12820114 5.07760254 44.12820114 3.89746094 44.12698364 C2 44 2 44 0 43 C0 28.81 0 14.62 0 0 Z M3 1 C3 14.2 3 27.4 3 41 C17.19 41 31.38 41 46 41 C46 27.8 46 14.6 46 1 C31.81 1 17.62 1 3 1 Z " fill="#74BEE1" transform="translate(97,72)"/>
<path d="M0 0 C15.18 0 30.36 0 46 0 C46.020625 6.72375 46.04125 13.4475 46.0625 20.375 C46.071604 22.49728027 46.08070801 24.61956055 46.09008789 26.80615234 C46.09300769 28.48274675 46.0955561 30.15934187 46.09765625 31.8359375 C46.10277222 32.71096924 46.10788818 33.58600098 46.11315918 34.48754883 C46.1140718 40.7718564 46.1140718 40.7718564 45 43 C30.15 43 15.3 43 0 43 C0 28.81 0 14.62 0 0 Z M1 3 C1 15.54 1 28.08 1 41 C14.86 41 28.72 41 43 41 C43 28.46 43 15.92 43 3 C29.14 3 15.28 3 1 3 Z " fill="#B4DCEF" transform="translate(172,514)"/>
<path d="M0 0 C15.18 0 30.36 0 46 0 C46 14.85 46 29.7 46 45 C43.6699002 46.1650499 42.32752923 46.1209358 39.73388672 46.11352539 C38.3942688 46.11334412 38.3942688 46.11334412 37.02758789 46.11315918 C36.08778076 46.10804321 35.14797363 46.10292725 34.1796875 46.09765625 C33.31674072 46.09664917 32.45379395 46.09564209 31.56469727 46.09460449 C28.3347847 46.08936435 25.10489104 46.07540312 21.875 46.0625 C14.65625 46.041875 7.4375 46.02125 0 46 C0 30.82 0 15.64 0 0 Z M1 3 C1 16.2 1 29.4 1 43 C15.52 43 30.04 43 45 43 C45 29.8 45 16.6 45 3 C30.48 3 15.96 3 1 3 Z " fill="#65B7DE" transform="translate(172,285)"/>
<path d="M0 0 C0.79497894 0.00444122 1.58995789 0.00888245 2.4090271 0.01345825 C3.76020126 0.01368484 3.76020126 0.01368484 5.13867188 0.01391602 C6.11266937 0.02423859 7.08666687 0.03456116 8.09017944 0.04519653 C9.08617157 0.04802643 10.0821637 0.05085632 11.1083374 0.05377197 C14.29771813 0.06499063 17.48682072 0.09009822 20.67611694 0.11550903 C22.83496706 0.12553666 24.99382157 0.13466288 27.15267944 0.14285278 C32.45235266 0.16323614 37.75142251 0.20238174 43.05111694 0.24050903 C43.05111694 14.43050903 43.05111694 28.62050903 43.05111694 43.24050903 C27.54111694 43.24050903 12.03111694 43.24050903 -3.94888306 43.24050903 C-3.99013306 36.51675903 -4.03138306 29.79300903 -4.07388306 22.86550903 C-4.10119507 19.68208862 -4.10119507 19.68208862 -4.12905884 16.43435669 C-4.13489842 14.75776421 -4.13999524 13.08116892 -4.14419556 11.40457153 C-4.15442749 10.52953979 -4.16465942 9.65450806 -4.17520142 8.75296021 C-4.1758323 6.58083281 -4.07226596 4.40912944 -3.94888306 2.24050903 C-1.94888306 0.24050903 -1.94888306 0.24050903 0 0 Z M-1.94888306 2.24050903 C-1.94888306 15.11050903 -1.94888306 27.98050903 -1.94888306 41.24050903 C12.24111694 41.24050903 26.43111694 41.24050903 41.05111694 41.24050903 C41.08205444 31.86644653 41.08205444 31.86644653 41.11361694 22.30300903 C41.12272095 20.32824585 41.13182495 18.35348267 41.14120483 16.31887817 C41.14412399 14.7628079 41.14667255 13.20673687 41.14877319 11.65066528 C41.15388916 10.83529297 41.15900513 10.01992065 41.16427612 9.17984009 C41.16458634 7.1997038 41.11349791 5.2196625 41.05111694 3.24050903 C39.8187811 1.77930634 39.8187811 1.77930634 36.0821228 2.12698364 C34.31006088 2.12714283 32.53799434 2.13284118 30.76596069 2.14285278 C29.83514175 2.14426773 28.90432281 2.14568268 27.94529724 2.1471405 C24.95970503 2.15275731 21.97418665 2.16531264 18.98861694 2.17800903 C16.96973781 2.18302187 14.95085752 2.18758515 12.93197632 2.19168091 C7.97163824 2.20188317 3.01146065 2.22145522 -1.94888306 2.24050903 Z " fill="#A7D5EC" transform="translate(101.94888305664063,513.7594909667969)"/>
<path d="M0 0 C54.45 0 108.9 0 165 0 C165 0.66 165 1.32 165 2 C110.55 2.33 56.1 2.66 0 3 C0 2.01 0 1.02 0 0 Z " fill="#39A2D4" transform="translate(424,285)"/>
<path d="M0 0 C0.33 0 0.66 0 1 0 C1 13.2 1 26.4 1 40 C14.86 40 28.72 40 43 40 C43 26.8 43 13.6 43 0 C43.99 0 44.98 0 46 0 C46 13.53 46 27.06 46 41 C30.82 41 15.64 41 0 41 C0 27.47 0 13.94 0 0 Z " fill="#BDDFF0" transform="translate(172,743)"/>
<path d="M0 0 C0.79719955 0.00222061 1.59439911 0.00444122 2.41575623 0.00672913 C3.31661453 0.00680466 4.21747284 0.00688019 5.14562988 0.00695801 C6.12478867 0.01211929 7.10394745 0.01728058 8.11277771 0.02259827 C9.11018478 0.02401321 10.10759186 0.02542816 11.13522339 0.02688599 C14.3348027 0.03250337 17.53431315 0.04505881 20.73387146 0.05775452 C22.89728191 0.06276728 25.06069345 0.06733057 27.22410583 0.07142639 C32.53988471 0.08247845 37.85562317 0.09923348 43.17137146 0.12025452 C43.17137146 1.11025452 43.17137146 2.10025452 43.17137146 3.12025452 C28.32137146 3.12025452 13.47137146 3.12025452 -1.82862854 3.12025452 C-1.82862854 16.65025452 -1.82862854 30.18025452 -1.82862854 44.12025452 C-2.15862854 44.12025452 -2.48862854 44.12025452 -2.82862854 44.12025452 C-2.85327367 38.01470741 -2.87146225 31.90918901 -2.88356018 25.80360413 C-2.88860142 23.72482296 -2.89543428 21.64604535 -2.90406799 19.567276 C-2.91614276 16.58622866 -2.92185878 13.60522802 -2.92628479 10.62416077 C-2.93402672 9.22104393 -2.93402672 9.22104393 -2.94192505 7.7895813 C-2.94200058 6.9287645 -2.94207611 6.06794769 -2.94215393 5.18104553 C-2.94437454 4.41937576 -2.94659515 3.65770599 -2.94888306 2.87295532 C-2.78131092 0.43060359 -2.43831075 0.16034852 0 0 Z " fill="#42A7D6" transform="translate(99.82862854003906,739.8797454833984)"/>
<path d="M0 0 C0.33 0 0.66 0 1 0 C1 13.2 1 26.4 1 40 C15.19 40 29.38 40 44 40 C44 40.66 44 41.32 44 42 C29.15 42 14.3 42 -1 42 C-1.020625 35.255625 -1.04125 28.51125 -1.0625 21.5625 C-1.071604 19.43111572 -1.08070801 17.29973145 -1.09008789 15.10375977 C-1.093007 13.42464257 -1.09555557 11.74552467 -1.09765625 10.06640625 C-1.10277222 9.18625854 -1.10788818 8.30611084 -1.11315918 7.39929199 C-1.11346896 5.26586121 -1.06244067 3.13251686 -1 1 C-0.67 0.67 -0.34 0.34 0 0 Z " fill="#92CCE8" transform="translate(99,515)"/>
</svg>
