<?xml version="1.0" encoding="UTF-8"?>
<svg version="1.1" xmlns="http://www.w3.org/2000/svg" width="512" height="512">
<path d="M0 0 C0.78375 0.5878125 1.5675 1.175625 2.375 1.78125 C2.91125 2.1834375 3.4475 2.585625 4 3 C3.9278125 2.42894531 3.855625 1.85789063 3.78125 1.26953125 C1.27939936 -20.58691396 1.27939936 -20.58691396 7 -28 C11.38486668 -32.97557411 16.44654099 -35.8863403 23 -37 C29.58345208 -37.24534604 35.64990172 -35.94641658 41 -32 C51.58790209 -22.03632796 51.49770286 -3.56232232 53.609375 10.00390625 C53.94368739 12.13518301 54.27810079 14.26644392 54.61260986 16.39768982 C55.3091332 20.84579998 56.00090019 25.29462153 56.68994141 29.74389648 C57.57043282 35.42355996 58.46823535 41.10034036 59.37029648 46.77661228 C60.06560414 51.17033052 60.74890885 55.56585539 61.42896271 59.96195793 C61.75476665 62.05523958 62.08486702 64.14785753 62.419487 66.239748 C66.69404007 93.03548725 66.69404007 93.03548725 60.37890625 103.12890625 C56.79318188 107.9945209 51.94353247 110.93846027 46 112 C43.63771977 111.97004688 41.27598472 111.8536413 38.91967773 111.68310547 C37.87463782 111.60903127 37.87463782 111.60903127 36.80848598 111.53346062 C28.06165872 110.89360341 19.32874349 110.08128617 10.59765625 109.2578125 C9.26296201 109.13241404 9.26296201 109.13241404 7.90130424 109.00448227 C3.20921432 108.56321288 -1.48254743 108.11862223 -6.17407227 107.67138672 C-10.98997211 107.21304111 -15.80694081 106.7671121 -20.62424374 106.32379341 C-24.362857 105.97737491 -28.10052969 105.6215178 -31.8380146 105.26314926 C-33.61374141 105.09455393 -35.38980818 104.92949715 -37.16621208 104.76819229 C-60.3520745 102.65494715 -60.3520745 102.65494715 -67.48828125 95.91796875 C-71.74834559 90.51308092 -73.37752162 84.18137618 -73.0625 77.375 C-72.12265287 70.97856468 -69.95176735 65.74392403 -65.16235352 61.29174805 C-58.78112306 56.63348698 -53.68758399 56.24360785 -45.9375 56.625 C-44.88111328 56.65207031 -43.82472656 56.67914063 -42.73632812 56.70703125 C-40.15535574 56.7771029 -37.57880993 56.8752653 -35 57 C-63.21055808 32.64906676 -96.49277327 25.60698824 -133 27 C-138.8063431 27.43390362 -144.37430719 28.49449481 -150 30 C-150.75394043 30.19867676 -151.50788086 30.39735352 -152.28466797 30.60205078 C-174.55508962 36.65354944 -192.82935272 47.70377648 -210 63 C-210.66773438 63.59425781 -211.33546875 64.18851562 -212.0234375 64.80078125 C-228.28462244 80.18401489 -238.86713185 101.63022155 -245.17578125 122.83984375 C-246 125 -246 125 -248 126 C-250.42222595 125.51956177 -250.42222595 125.51956177 -253.50366211 124.66064453 C-254.65503159 124.34346466 -255.80640106 124.02628479 -256.99266052 123.69949341 C-258.86607872 123.17148636 -258.86607872 123.17148636 -260.77734375 122.6328125 C-262.06750467 122.27444933 -263.35783618 121.91669982 -264.64833069 121.55953979 C-268.05038479 120.61608932 -271.44992503 119.66386643 -274.84906006 118.70996094 C-278.30340786 117.74241646 -281.76025578 116.78389143 -285.21679688 115.82421875 C-290.26804835 114.41982241 -295.31851409 113.01265857 -300.36694336 111.59814453 C-301.89344765 111.17059372 -301.89344765 111.17059372 -303.45079041 110.73440552 C-305.31303049 110.19791005 -307.16147098 109.61284301 -309 109 C-308.45147097 102.3867486 -306.74581893 96.70462646 -304.4375 90.5 C-304.08252441 89.53602295 -303.72754883 88.5720459 -303.36181641 87.57885742 C-300.15068109 79.0514463 -296.30385846 71.02000516 -292 63 C-291.51015625 62.03191406 -291.0203125 61.06382812 -290.515625 60.06640625 C-268.12017647 16.72240615 -224.78513614 -15.88603243 -179.0625 -30.8125 C-118.2680378 -49.90698457 -50.72545105 -38.62051387 0 0 Z " fill="#222222" transform="translate(375,99)"/>
<path d="M0 0 C7.15607808 0.65541446 13.85653473 2.41703168 20.77734375 4.30859375 C22.58798058 4.79876732 22.58798058 4.79876732 24.43519592 5.29884338 C27.62028391 6.16350963 30.80378627 7.03376134 33.98693848 7.90551758 C36.59586664 8.61705828 39.20745548 9.3185521 41.81903744 10.02027798 C44.93216076 10.85896977 48.04206961 11.70940728 51.15234375 12.55859375 C52.32514389 12.87324081 53.49794403 13.18788788 54.70628357 13.5120697 C55.78152786 13.80900223 56.85677216 14.10593475 57.96459961 14.41186523 C58.91531845 14.6708812 59.86603729 14.92989716 60.8455658 15.19676208 C63 16 63 16 64 18 C61.27396783 30.87868515 55.60316685 43.5065695 49.9375 55.3125 C49.45579346 56.31804932 48.97408691 57.32359863 48.4777832 58.35961914 C35.98709297 83.68790482 16.43122644 106.84133086 -6 124 C-7.010625 124.77730469 -8.02125 125.55460937 -9.0625 126.35546875 C-24.91727726 138.25370208 -42.29073464 147.49982441 -61 154 C-61.80759766 154.28069336 -62.61519531 154.56138672 -63.44726562 154.85058594 C-111.55322244 171.17430989 -166.30079302 168.45385806 -212.078125 146.09765625 C-225.66513164 139.23874693 -238.14772602 131.57759513 -250 122 C-249.835 123.175625 -249.67 124.35125 -249.5 125.5625 C-247.42323099 145.81898537 -247.42323099 145.81898537 -253.1484375 153.97265625 C-257.53980139 158.78092178 -262.55660986 161.4726716 -269.0078125 162.23828125 C-275.97390677 162.48248013 -282.39836496 160.98875177 -287.859375 156.45703125 C-293.83577701 149.99245779 -295.43539661 141.88948043 -296.7175293 133.44140625 C-296.86427094 132.51984238 -297.01101257 131.5982785 -297.16220093 130.64878845 C-297.64168655 127.62133579 -298.10851743 124.59210141 -298.57421875 121.5625 C-298.90583521 119.43743761 -299.23785803 117.31243861 -299.57026672 115.1875 C-300.26433072 110.73671916 -300.95182942 106.28498345 -301.63500977 101.83251953 C-302.50516413 96.16648996 -303.3939705 90.50357208 -304.28816509 84.84129333 C-304.97878275 80.45157939 -305.65799966 76.06015569 -306.33408546 71.66818237 C-306.65684081 69.58191765 -306.98330368 67.4962226 -307.31375694 65.41116333 C-312.58464684 32.04585541 -312.58464684 32.04585541 -307.33984375 23.609375 C-303.93195269 19.51593151 -299.97276647 16.00246636 -295 14 C-283.24079166 13.06811374 -271.32857594 14.5179047 -259.6328125 15.6796875 C-257.81880625 15.85477854 -256.00474867 16.02933851 -254.19064331 16.20339966 C-250.42022863 16.5668229 -246.65037046 16.93542934 -242.88085938 17.30810547 C-238.07402926 17.78307859 -233.26618029 18.24662166 -228.45788765 18.7065258 C-224.72382331 19.0646505 -220.99027298 19.42791533 -217.25686264 19.79278946 C-215.48454836 19.96556332 -213.71210189 20.13698723 -211.93951797 20.3069725 C-185.10974587 22.89025413 -185.10974587 22.89025413 -177.8125 30.1875 C-173.99825589 36.10615465 -171.85666571 42.92972587 -173 50 C-174.92773576 57.68669478 -178.4153854 62.59742142 -185 67 C-193.13770856 70.98228291 -203.304601 68.82392952 -212 68 C-184.12260193 89.70947302 -149.94254153 102.53325786 -114.17578125 98.5 C-97.94980657 96.41254004 -82.58225163 92.55186806 -68 85 C-67.05769531 84.52691406 -66.11539063 84.05382812 -65.14453125 83.56640625 C-54.22119546 77.8813415 -44.91627762 70.43584428 -36 62 C-35.17628906 61.24074219 -34.35257812 60.48148437 -33.50390625 59.69921875 C-16.21390036 43.21841751 -6.79917955 22.55653559 0 0 Z " fill="#222222" transform="translate(383,288)"/>
</svg>
