<?xml version="1.0" encoding="utf-8"?>
<!-- Svg Vector Icons : http://www.onlinewebfonts.com/icon -->
<!DOCTYPE svg PUBLIC "-//W3C//DTD SVG 1.1//EN" "http://www.w3.org/Graphics/SVG/1.1/DTD/svg11.dtd">
<svg version="1.1" xmlns="http://www.w3.org/2000/svg" xmlns:xlink="http://www.w3.org/1999/xlink" x="0px" y="0px" viewBox="0 0 256 256" enable-background="new 0 0 256 256" xml:space="preserve">
<metadata> Svg Vector Icons : http://www.onlinewebfonts.com/icon </metadata>
<g><g><path fill="#000000" d="M78.7,78.8h98.4c5.4,0,9.9-4.4,9.9-9.9s-4.4-9.9-9.9-9.9H78.7c-5.4,0-9.9,4.4-9.9,9.9S73.3,78.8,78.7,78.8z"/><path fill="#000000" d="M78.7,118.3h98.4c5.4,0,9.9-4.4,9.9-9.9c0-5.4-4.4-9.9-9.9-9.9H78.7c-5.4,0-9.9,4.4-9.9,9.9C68.9,113.9,73.3,118.3,78.7,118.3z"/><path fill="#000000" d="M220.5,15.8c-3.8-3.8-8.9-5.8-13.9-5.8H49.4c-5,0-10.1,1.9-13.9,5.8c-3.9,3.9-5.8,8.9-5.8,13.9v196.6c0,5,1.9,10.1,5.8,13.9c3.8,3.8,8.9,5.8,13.9,5.8h59.5c0.2,0,0.5,0,0.7,0c5.4,0,9.9-4.4,9.9-9.8c0-5.4-4.4-9.9-9.9-9.9H58.3c-2.3,0-4.6-0.9-6.3-2.6c-1.7-1.7-2.6-4-2.6-6.3V38.6c0-2.3,0.9-4.6,2.6-6.3c1.7-1.7,4-2.6,6.3-2.6h139.4c2.3,0,4.6,0.9,6.3,2.6s2.6,4,2.6,6.3v90.7c0,5.4,4.4,9.8,9.8,9.8c5.4,0,9.8-4.4,9.8-9.8V29.7C226.3,24.6,224.4,19.6,220.5,15.8z"/><path fill="#000000" d="M173.9,141.1c-28.9,0-52.4,23.5-52.4,52.4c0,28.9,23.5,52.4,52.4,52.4c28.9,0,52.4-23.5,52.4-52.4S202.8,141.1,173.9,141.1z M200,200.2h-19.5v19.5c0,3.7-3,6.7-6.6,6.7s-6.6-3-6.6-6.7v-19.5h-19.5c-3.7,0-6.7-3-6.7-6.6s3-6.6,6.7-6.6h19.5v-19.5c0-3.7,3-6.7,6.6-6.7s6.6,3,6.6,6.7v19.5H200c3.7,0,6.7,3,6.7,6.6S203.7,200.2,200,200.2z"/></g></g>
</svg>